#!OML:ASF E:\Mandelcareful walks\Project 1\Capture day 1\Session 1\Subject1.ASF
:FULLY-SPECIFIED
:DEGREES
432
root -8.50097 14.6432 -3.78264 -339.2 64.5242 -353.928
lowerback 26.5955 -0.59099 -7.73993
upperback 5.67679 -2.18464 3.22667
thorax -7.91002 -0.736893 8.8104
lowerneck -8.22843 -20.9766 -23.1812
upperneck 4.60277 -29.2195 27.3893
head 10.6751 -13.4415 7.70821
rclavicle 7.35503e-015 9.54166e-015
rhumerus -18.2566 6.1701 -81.2953
rradius 68.5433
rwrist -6.79057
rhand -11.9582 -35.35
rfingers 7.12502
rthumb 14.0973 -64.8519
lclavicle 7.35503e-015 9.54166e-015
lhumerus -36.4654 -37.7891 87.2478
lradius 81.5561
lwrist -0.0575022
lhand -13.1587 -8.44881
lfingers 7.12502
lthumb 12.9403 21.1299
rfemur -56.6762 -14.366 3.67189
rtibia 51.9959
rfoot -4.88772 -10.7732
rtoes -13.5552
lfemur -51.7647 19.1284 -22.639
ltibia 69.9544
lfoot -29.2255 9.21648
ltoes -15.8415
433
root -8.41039 14.6373 -3.77332 -338.878 63.2022 -353.798
lowerback 26.366 -0.85529 -7.43475
upperback 5.52245 -2.44726 3.22956
thorax -7.93365 -0.867886 8.70904
lowerneck -7.60413 -21.272 -22.9187
upperneck 4.41311 -29.8681 27.9711
head 10.7578 -13.7734 7.71487
rclavicle 2.00773e-014 -2.80286e-014
rhumerus -17.7564 6.42205 -81.5693
rradius 67.5824
rwrist -7.06922
rhand -11.3983 -35.0523
rfingers 7.12502
rthumb 14.6368 -64.5158
lclavicle 2.00773e-014 -2.80286e-014
lhumerus -37.6464 -36.3047 88.8327
lradius 81.3987
lwrist -0.123269
lhand -14.2033 -8.83915
lfingers 7.12502
lthumb 11.9331 20.8007
rfemur -57.1571 -13.9807 3.58775
rtibia 52.075
rfoot -5.25541 -10.1531
rtoes -12.1213
lfemur -51.537 19.6963 -23.0006
ltibia 70.1958
lfoot -29.9256 9.66554
ltoes -15.7228
434
root -8.32147 14.6207 -3.76159 -338.457 61.7168 -353.608
lowerback 25.9209 -0.747463 -6.62612
upperback 5.47945 -2.12875 2.78344
thorax -7.88304 -0.742928 7.60086
lowerneck -6.96988 -21.7942 -21.3742
upperneck 3.88721 -30.8212 28.3228
head 10.5308 -14.2599 7.40315
rclavicle 2.5842e-014 -1.17283e-014
rhumerus -17.4058 4.77227 -82.1104
rradius 66.6901
rwrist -7.23002
rhand -10.7129 -34.6111
rfingers 7.12502
rthumb 15.297 -64.0254
lclavicle 2.5842e-014 -1.17283e-014
lhumerus -38.1126 -36.7346 89.6772
lradius 81.0408
lwrist -0.333616
lhand -15.3659 -9.58005
lfingers 7.12502
lthumb 10.8118 20.1217
rfemur -57.8831 -13.4678 3.37372
rtibia 52.3029
rfoot -5.34 -9.44886
rtoes -10.8789
lfemur -51.4032 20.3786 -23.4761
ltibia 70.4461
lfoot -30.5717 10.1141
ltoes -15.4618
435
root -8.23235 14.5986 -3.74391 -338.08 59.9819 -353.4
lowerback 25.6085 -0.942013 -6.73818
upperback 5.30357 -2.39732 2.94726
thorax -7.86153 -0.871296 7.92611
lowerneck -6.60001 -21.769 -21.6306
upperneck 3.92149 -30.8576 28.4806
head 10.5691 -14.3069 7.50641
rclavicle 6.77856e-014 -4.65156e-014
rhumerus -16.9812 5.49558 -82.1551
rradius 65.8865
rwrist -7.68012
rhand -9.97663 -34.2277
rfingers 7.12502
rthumb 16.0062 -63.5864
lclavicle 6.77856e-014 -4.65156e-014
lhumerus -39.2976 -35.1911 91.6636
lradius 80.7157
lwrist 0.131975
lhand -18.0757 -9.27008
lfingers 7.12502
lthumb 8.19723 20.5509
rfemur -58.7632 -12.7389 3.09266
rtibia 52.6063
rfoot -5.18082 -8.89067
rtoes -9.72172
lfemur -51.1574 21.2424 -24.0038
ltibia 70.698
lfoot -31.0699 10.482
ltoes -14.8883
436
root -8.13665 14.5867 -3.72481 -337.943 58.1763 -353.292
lowerback 25.3082 -1.11803 -6.49449
upperback 5.32953 -2.56593 2.81695
thorax -7.67019 -0.972773 7.66708
lowerneck -6.44204 -21.8259 -21.3019
upperneck 3.7264 -31.0225 28.8579
head 10.5515 -14.3914 7.5527
rclavicle 2.0276e-014 -1.5704e-014
rhumerus -16.707 5.62197 -82.5297
rradius 65.5897
rwrist -8.13
rhand -8.77486 -33.6152
rfingers 7.12502
rthumb 17.1631 -62.8772
lclavicle 2.0276e-014 -1.5704e-014
lhumerus -39.2913 -33.798 92.1573
lradius 80.7853
lwrist 3.01996
lhand -13.8433 -10.0434
lfingers 7.12502
lthumb 12.2802 19.576
rfemur -59.487 -12.0153 2.86927
rtibia 52.9243
rfoot -5.03153 -8.19492
rtoes -8.66004
lfemur -50.6178 22.1147 -24.4658
ltibia 70.9021
lfoot -31.7615 11.0058
ltoes -14.9126
437
root -8.04129 14.585 -3.70134 -337.866 56.3817 -353.23
lowerback 25.0382 -1.30723 -6.31726
upperback 5.41414 -2.75723 2.78344
thorax -7.41698 -1.08642 7.56194
lowerneck -6.4946 -21.903 -20.9706
upperneck 3.56396 -31.1515 29.0517
head 10.5273 -14.4465 7.52966
rclavicle 1.27222e-014 -3.08116e-014
rhumerus -16.5021 6.20547 -82.6622
rradius 65.6696
rwrist -8.75124
rhand -7.12218 -32.4538
rfingers 7.12502
rthumb 18.7533 -61.5698
lclavicle 1.27222e-014 -3.08116e-014
lhumerus -39.499 -33.0277 93.0422
lradius 81.0302
lwrist 5.21846
lhand -12.1097 -9.11487
lfingers 7.12502
lthumb 13.9513 20.397
rfemur -60.166 -11.3935 2.69901
rtibia 53.2559
rfoot -5.00201 -7.23537
rtoes -6.92278
lfemur -50.0171 22.9997 -24.9137
ltibia 71.0086
lfoot -32.4945 11.6972
ltoes -15.759
438
root -7.95085 14.5806 -3.66974 -337.638 54.7366 -353.092
lowerback 24.7425 -1.47065 -6.23928
upperback 5.44296 -2.93353 2.85322
thorax -7.20457 -1.18753 7.62665
lowerneck -6.46415 -21.9438 -20.8137
upperneck 3.34687 -31.2315 29.3444
head 10.5115 -14.4883 7.58046
rclavicle 3.00165e-014 -2.28602e-014
rhumerus -16.0683 6.86687 -82.6502
rradius 65.5057
rwrist -9.55719
rhand -6.31483 -31.8693
rfingers 7.12502
rthumb 19.5297 -60.9084
lclavicle 3.00165e-014 -2.28602e-014
lhumerus -39.677 -32.5501 94.0639
lradius 80.9959
lwrist 6.15555
lhand -14.1222 -9.20729
lfingers 7.12502
lthumb 12.0112 20.428
rfemur -60.8998 -10.9306 2.62983
rtibia 53.6062
rfoot -4.98793 -6.35662
rtoes -7.45802
lfemur -49.5952 23.8341 -25.3748
ltibia 71.0616
lfoot -33.032 12.3009
ltoes -16.472
439
root -7.86092 14.5763 -3.629 -337.387 53.2001 -352.831
lowerback 24.4822 -1.69372 -6.0864
upperback 5.46523 -3.18478 2.76701
thorax -7.01984 -1.32441 7.49375
lowerneck -6.31737 -21.982 -20.4501
upperneck 3.16549 -31.3314 29.5474
head 10.4362 -14.5513 7.58729
rclavicle -8.34896e-015 -8.94531e-015
rhumerus -15.3306 7.08723 -82.9694
rradius 64.6649
rwrist -9.9151
rhand -6.07228 -31.2479
rfingers 7.12502
rthumb 19.7629 -60.2632
lclavicle -8.34896e-015 -8.94531e-015
lhumerus -39.8192 -32.4639 94.7928
lradius 80.8679
lwrist 6.91873
lhand -13.9358 -9.21766
lfingers 7.12502
lthumb 12.191 20.4071
rfemur -61.4904 -10.6737 2.69653
rtibia 53.9301
rfoot -5.03318 -5.74362
rtoes -11.8746
lfemur -49.0737 24.6522 -25.8455
ltibia 71.0621
lfoot -33.5042 12.7723
ltoes -17.1124
440
root -7.77027 14.5773 -3.57824 -337.249 51.6308 -352.587
lowerback 24.2265 -2.01681 -6.02844
upperback 5.53516 -3.5876 2.66264
thorax -6.75563 -1.53746 7.43366
lowerneck -6.20257 -21.9513 -20.2835
upperneck 3.03695 -31.329 29.7532
head 10.3941 -14.5645 7.6467
rclavicle 9.44227e-014 -3.27995e-014
rhumerus -14.4082 7.23106 -83.3761
rradius 63.2512
rwrist -9.24224
rhand -5.31068 -29.7182
rfingers 7.12502
rthumb 20.4949 -58.6564
lclavicle 9.44227e-014 -3.27995e-014
lhumerus -39.8746 -32.3933 95.235
lradius 80.6624
lwrist 7.22232
lhand -14.3232 -9.92021
lfingers 7.12502
lthumb 11.8175 19.7264
rfemur -61.9903 -10.4522 2.79554
rtibia 54.2134
rfoot -5.09614 -5.01942
rtoes -16.883
lfemur -48.3509 25.5831 -26.2836
ltibia 71.0336
lfoot -34.1231 12.9881
ltoes -17.2228
441
root -7.67824 14.5803 -3.52614 -337.3 50.0866 -352.556
lowerback 24.3729 -2.30595 -6.56426
upperback 5.33213 -4.06704 3.19948
thorax -6.88731 -1.7515 8.50407
lowerneck -5.99691 -21.8174 -21.0408
upperneck 3.26218 -31.0971 29.443
head 10.4317 -14.4847 7.72651
rclavicle -8.90555e-014 3.3197e-014
rhumerus -14.0381 9.59676 -82.9969
rradius 63.0525
rwrist -10.0478
rhand -6.99795 -33.4898
rfingers 7.12502
rthumb 18.8728 -62.5942
lclavicle -8.90555e-014 3.3197e-014
lhumerus -40.2033 -31.7373 96.7315
lradius 80.506
lwrist 7.74814
lhand -15.2914 -9.81856
lfingers 7.12502
lthumb 10.8836 19.8794
rfemur -62.4269 -10.1419 2.91543
rtibia 54.4567
rfoot -4.99183 -3.80142
rtoes -13.7322
lfemur -47.5974 26.5398 -26.5678
ltibia 71.0012
lfoot -34.8232 13.2131
ltoes -16.8841
442
root -7.5927 14.5724 -3.47581 -337.103 48.661 -352.485
lowerback 24.2315 -2.48694 -6.49535
upperback 5.20204 -4.27709 3.34547
thorax -6.91393 -1.85248 8.68264
lowerneck -5.82979 -21.9652 -21.0535
upperneck 3.30112 -31.3298 29.392
head 10.463 -14.6076 7.65127
rclavicle 1.25234e-014 -3.57812e-014
rhumerus -13.5365 10.5651 -82.8483
rradius 62.4956
rwrist -10.1219
rhand -8.14041 -35.3288
rfingers 7.12502
rthumb 17.7737 -64.5365
lclavicle 1.25234e-014 -3.57812e-014
lhumerus -39.614 -32.146 97.0545
lradius 79.913
lwrist 6.3967
lhand -13.8184 -11.2071
lfingers 7.12502
lthumb 12.3042 18.4108
rfemur -63.0533 -9.93742 2.96824
rtibia 54.7574
rfoot -4.93712 -2.56501
rtoes -13.7418
lfemur -47.2379 27.3343 -26.9581
ltibia 71.033
lfoot -35.3131 13.6235
ltoes -16.6169
443
root -7.51107 14.5578 -3.41912 -337.059 47.2627 -352.506
lowerback 24.2568 -2.57527 -6.68919
upperback 5.10051 -4.4168 3.70845
thorax -6.96343 -1.91297 9.2551
lowerneck -6.13618 -22.1254 -21.2768
upperneck 3.59271 -31.5123 29.1427
head 10.6386 -14.6545 7.50374
rclavicle -8.64713e-014 -3.73715e-014
rhumerus -13.0906 11.6129 -82.3543
rradius 62.043
rwrist -9.97254
rhand -8.66992 -35.0759
rfingers 7.12502
rthumb 17.2642 -64.329
lclavicle -8.64713e-014 -3.73715e-014
lhumerus -39.1122 -33.1496 97.8808
lradius 79.7216
lwrist 6.97374
lhand -16.0445 -11.8589
lfingers 7.12502
lthumb 10.1572 17.876
rfemur -63.6127 -9.60134 3.05478
rtibia 55.1598
rfoot -5.10947 -1.59702
rtoes -13.5389
lfemur -46.8434 28.2675 -27.206
ltibia 71.1332
lfoot -35.7748 13.91
ltoes -17.0405
444
root -7.44283 14.5421 -3.36177 -337.045 46.0558 -352.613
lowerback 23.9384 -3.00542 -5.98336
upperback 5.18996 -4.81627 3.37788
thorax -6.71949 -2.13634 8.54009
lowerneck -6.38033 -22.1339 -20.9509
upperneck 3.78054 -31.6241 29.3951
head 10.783 -14.6613 7.49116
rclavicle -4.67144e-014 0
rhumerus -12.9897 12.026 -82.9863
rradius 62.024
rwrist -9.81179
rhand -8.38835 -33.0339
rfingers 7.12502
rthumb 17.5351 -62.2631
lclavicle -4.67144e-014 0
lhumerus -38.46 -35.2497 97.2546
lradius 80.0201
lwrist 8.12761
lhand -17.8558 -12.005
lfingers 7.12502
lthumb 8.40947 17.8075
rfemur -64.2076 -9.20755 3.20875
rtibia 55.6407
rfoot -5.32359 -0.856052
rtoes -12.2949
lfemur -46.6075 29.1686 -27.352
ltibia 71.2537
lfoot -36.1468 14.4401
ltoes -18.9331
